<?xml version="1.0" encoding="UTF-8"?>
<svg xmlns="http://www.w3.org/2000/svg" version="1.1" width="500px" height="500px" style="shape-rendering:geometricPrecision; text-rendering:geometricPrecision; image-rendering:optimizeQuality; fill-rule:evenodd; clip-rule:evenodd" xmlns:xlink="http://www.w3.org/1999/xlink">
<g><path style="opacity:1" fill="#000000" d="M -0.5,-0.5 C 166.167,-0.5 332.833,-0.5 499.5,-0.5C 499.5,166.167 499.5,332.833 499.5,499.5C 332.833,499.5 166.167,499.5 -0.5,499.5C -0.5,332.833 -0.5,166.167 -0.5,-0.5 Z"/></g>
<g><path style="opacity:1" fill="#525252" d="M 196.5,160.5 C 199.5,160.5 202.5,160.5 205.5,160.5C 205.5,164.5 205.5,168.5 205.5,172.5C 196.61,170.958 189.443,173.625 184,180.5C 185.255,197.817 186.255,215.15 187,232.5C 184.737,239.097 180.237,243.264 173.5,245C 176.5,246.667 179.5,248.333 182.5,250C 184.377,252.251 185.877,254.751 187,257.5C 186.396,274.865 185.396,292.198 184,309.5C 186.371,314.191 190.204,317.024 195.5,318C 198.817,318.498 202.15,318.665 205.5,318.5C 205.5,322.5 205.5,326.5 205.5,330.5C 192.798,331.324 181.965,327.324 173,318.5C 171.008,313.728 170.174,308.728 170.5,303.5C 171.889,289.179 172.722,274.846 173,260.5C 171.5,257.667 169.333,255.5 166.5,254C 160.327,251.999 153.994,251.166 147.5,251.5C 147.5,247.5 147.5,243.5 147.5,239.5C 156.696,240.495 164.862,238.162 172,232.5C 173.559,220.505 173.226,208.505 171,196.5C 166.547,175.018 175.047,163.018 196.5,160.5 Z"/></g>
<g><path style="opacity:1" fill="#525252" d="M 294.5,160.5 C 301.994,160.687 309.327,161.853 316.5,164C 325.516,167.866 330.183,174.699 330.5,184.5C 328.87,197.299 327.537,210.132 326.5,223C 326.318,230.818 329.985,235.818 337.5,238C 342.42,239.25 347.42,239.75 352.5,239.5C 352.5,243.5 352.5,247.5 352.5,251.5C 346.3,251.016 340.3,251.849 334.5,254C 326.84,258.758 324.34,265.592 327,274.5C 328.6,286.821 329.6,299.155 330,311.5C 327.549,320.493 321.715,325.993 312.5,328C 306.601,329.594 300.601,330.428 294.5,330.5C 294.5,326.5 294.5,322.5 294.5,318.5C 299.952,318.425 305.286,317.591 310.5,316C 313,314.833 314.833,313 316,310.5C 315.22,293.147 314.22,275.814 313,258.5C 315.449,251.553 320.282,247.22 327.5,245.5C 319.643,242.814 314.809,237.48 313,229.5C 314.067,213.169 315.067,196.836 316,180.5C 314.833,178 313,176.167 310.5,175C 305.344,173.038 300.011,172.205 294.5,172.5C 294.5,168.5 294.5,164.5 294.5,160.5 Z"/></g>
<g><path style="opacity:1" fill="#0072fa" d="M 269.5,228.5 C 270.641,225.36 270.808,222.027 270,218.5C 269.433,221.168 268.933,223.834 268.5,226.5C 265.37,244.816 262.37,263.15 259.5,281.5C 252.833,281.5 246.167,281.5 239.5,281.5C 236.008,263.196 232.674,244.863 229.5,226.5C 229.162,224.146 228.662,221.813 228,219.5C 227.199,222.367 227.366,225.034 228.5,227.5C 228.5,251.5 228.5,275.5 228.5,299.5C 221.167,299.5 213.833,299.5 206.5,299.5C 208.462,264.182 210.129,228.848 211.5,193.5C 220.5,193.5 229.5,193.5 238.5,193.5C 241.902,215.243 245.735,236.909 250,258.5C 253.746,236.863 257.246,215.196 260.5,193.5C 269.5,193.5 278.5,193.5 287.5,193.5C 288.871,228.85 290.538,264.183 292.5,299.5C 285.167,299.5 277.833,299.5 270.5,299.5C 269.862,275.839 269.529,252.172 269.5,228.5 Z"/></g>
<g><path style="opacity:1" fill="#003370" d="M 269.5,228.5 C 269.672,227.508 269.338,226.842 268.5,226.5C 268.933,223.834 269.433,221.168 270,218.5C 270.808,222.027 270.641,225.36 269.5,228.5 Z"/></g>
<g><path style="opacity:1" fill="#003069" d="M 229.5,226.5 C 228.833,226.5 228.5,226.833 228.5,227.5C 227.366,225.034 227.199,222.367 228,219.5C 228.662,221.813 229.162,224.146 229.5,226.5 Z"/></g>
<g><path style="opacity:1" fill="#e2e2e2" d="M 253.5,298.5 C 256.076,298.722 256.91,300.055 256,302.5C 252.437,309.959 248.603,317.293 244.5,324.5C 242.717,323.652 242.217,322.319 243,320.5C 246.784,313.266 250.284,305.933 253.5,298.5 Z"/></g>
<g><path style="opacity:1" fill="#e9e9e9" d="M 236.5,304.5 C 238.085,305.002 238.585,306.002 238,307.5C 235.586,309.291 233.086,310.957 230.5,312.5C 232.705,314.526 235.205,316.192 238,317.5C 238.601,318.965 238.101,319.965 236.5,320.5C 232.275,318.749 228.942,316.082 226.5,312.5C 229.46,309.355 232.793,306.688 236.5,304.5 Z"/></g>
<g><path style="opacity:1" fill="#e9e9e9" d="M 261.5,304.5 C 265.756,306.432 269.423,309.099 272.5,312.5C 270.058,316.082 266.725,318.749 262.5,320.5C 261.5,320.167 260.833,319.5 260.5,318.5C 263.205,316.488 265.872,314.488 268.5,312.5C 265.914,310.957 263.414,309.291 261,307.5C 260.53,306.423 260.697,305.423 261.5,304.5 Z"/></g>
</svg>
